<?xml version="1.0" encoding="utf-8"?>
<!-- Generator: Adobe Illustrator 19.1.0, SVG Export Plug-In . SVG Version: 6.00 Build 0)  -->
<!DOCTYPE svg PUBLIC "-//W3C//DTD SVG 1.1//EN" "http://www.w3.org/Graphics/SVG/1.1/DTD/svg11.dtd">
<svg version="1.1" xmlns="http://www.w3.org/2000/svg" xmlns:xlink="http://www.w3.org/1999/xlink" x="0px" y="0px"
	 viewBox="0 0 236 26" enable-background="new 0 0 236 26" xml:space="preserve">
<g id="Layer_2">
</g>
<g id="Layer_1">
	<g>
		<polygon fill="#FFFFFF" points="168.66,24.93 1.29,24.93 1.89,21.55 168.66,21.55 		"/>
		<g>
			<path fill="#FFFFFF" d="M14.81,2.17c1.4,0.94,2.09,2.34,2.09,4.19v0.32h-5.12V6.57c0-0.52-0.18-0.94-0.55-1.27
				c-0.36-0.33-0.92-0.49-1.67-0.49c-0.73,0-1.28,0.1-1.65,0.31c-0.37,0.2-0.56,0.48-0.56,0.81c0,0.41,0.22,0.73,0.65,0.97
				c0.44,0.24,1.07,0.45,1.91,0.63l2.37,0.53c3.31,0.75,4.96,2.46,4.96,5.15c0,2.19-0.72,3.8-2.16,4.83
				c-1.44,1.03-3.43,1.55-5.97,1.55c-1.4,0-2.7-0.21-3.88-0.64c-1.18-0.43-2.13-1.08-2.85-1.96c-0.72-0.88-1.08-1.97-1.08-3.27V13.4
				c0-0.14,0.01-0.25,0.03-0.32h5.17c-0.02,0.05-0.03,0.16-0.03,0.32c0,0.55,0.19,1,0.57,1.36c0.38,0.36,1.02,0.53,1.91,0.53
				c0.98,0,1.64-0.1,2-0.31c0.36-0.2,0.53-0.48,0.53-0.84c0-0.43-0.25-0.75-0.75-0.97c-0.5-0.22-1.28-0.45-2.35-0.68
				c-1.35-0.28-2.48-0.6-3.37-0.95c-0.9-0.35-1.68-0.92-2.33-1.71C2.04,9.04,1.71,7.96,1.71,6.57c0-1.24,0.34-2.3,1.03-3.17
				c0.68-0.87,1.61-1.53,2.79-1.97c1.17-0.44,2.49-0.67,3.95-0.67C11.64,0.76,13.42,1.23,14.81,2.17z"/>
			<path fill="#FFFFFF" d="M36.7,19.32h-5.81l-1.09-3.25h-5.81l-1.07,3.25h-5.39l6.11-18.29h6.96L36.7,19.32z M26.83,6.65
				l-1.57,5.55h3.25l-1.55-5.55H26.83z"/>
			<path fill="#FFFFFF" d="M43.74,14.84h6.64l0.53,4.48H38.09V1.02h5.65V14.84z"/>
			<path fill="#FFFFFF" d="M65.79,5.24h-7.71V7.9h7.41v4.08h-7.41v2.96h7.71l0.53,4.37H52.59V1.02h13.73L65.79,5.24z"/>
			<path fill="#FFFFFF" d="M81.24,2.17c1.4,0.94,2.09,2.34,2.09,4.19v0.32h-5.12V6.57c0-0.52-0.18-0.94-0.55-1.27
				C77.31,4.97,76.75,4.81,76,4.81c-0.73,0-1.28,0.1-1.65,0.31c-0.37,0.2-0.56,0.48-0.56,0.81c0,0.41,0.22,0.73,0.65,0.97
				c0.44,0.24,1.07,0.45,1.91,0.63l2.37,0.53c3.31,0.75,4.96,2.46,4.96,5.15c0,2.19-0.72,3.8-2.16,4.83
				c-1.44,1.03-3.43,1.55-5.97,1.55c-1.4,0-2.7-0.21-3.88-0.64c-1.18-0.43-2.13-1.08-2.85-1.96c-0.72-0.88-1.08-1.97-1.08-3.27V13.4
				c0-0.14,0.01-0.25,0.03-0.32h5.17c-0.02,0.05-0.03,0.16-0.03,0.32c0,0.55,0.19,1,0.57,1.36c0.38,0.36,1.02,0.53,1.91,0.53
				c0.98,0,1.64-0.1,2-0.31c0.36-0.2,0.53-0.48,0.53-0.84c0-0.43-0.25-0.75-0.75-0.97c-0.5-0.22-1.28-0.45-2.35-0.68
				c-1.35-0.28-2.48-0.6-3.37-0.95c-0.9-0.35-1.68-0.92-2.33-1.71c-0.66-0.79-0.99-1.88-0.99-3.27c0-1.24,0.34-2.3,1.03-3.17
				c0.68-0.87,1.61-1.53,2.79-1.97c1.17-0.44,2.49-0.67,3.95-0.67C78.07,0.76,79.85,1.23,81.24,2.17z"/>
			<path fill="#FFFFFF" d="M98.22,5.37h-7.23v2.99h6.72v4.11h-6.72v6.85h-5.47V1.02h13.23L98.22,5.37z"/>
			<path fill="#FFFFFF" d="M113.32,1.89c1.22,0.72,2.19,1.69,2.91,2.91c0.72,1.22,1.08,2.56,1.08,4.01v2.77
				c0,1.46-0.36,2.8-1.08,4.01c-0.72,1.22-1.69,2.19-2.91,2.91c-1.22,0.72-2.56,1.08-4.01,1.08h-1.49c-1.46,0-2.8-0.36-4.01-1.08
				c-1.22-0.72-2.19-1.69-2.91-2.91c-0.72-1.22-1.08-2.56-1.08-4.01V8.81c0-1.46,0.36-2.8,1.08-4.01c0.72-1.22,1.69-2.19,2.91-2.91
				c1.22-0.72,2.56-1.08,4.01-1.08h1.49C110.77,0.81,112.11,1.17,113.32,1.89z M106.62,5.69c-0.52,0.52-0.77,1.15-0.77,1.89v5.15
				c0,0.75,0.26,1.38,0.77,1.89c0.52,0.52,1.15,0.77,1.89,0.77h0.13c0.75,0,1.38-0.26,1.89-0.77c0.52-0.52,0.77-1.15,0.77-1.89V7.58
				c0-0.75-0.26-1.38-0.77-1.89c-0.52-0.52-1.15-0.77-1.89-0.77h-0.13C107.76,4.92,107.13,5.17,106.62,5.69z"/>
			<path fill="#FFFFFF" d="M131.88,1.6c0.77,0.38,1.4,0.92,1.88,1.6c0.48,0.68,0.72,1.47,0.72,2.36c0,0.64-0.15,1.27-0.44,1.89
				c-0.29,0.62-0.69,1.16-1.19,1.6c-0.5,0.44-1.05,0.72-1.65,0.83v0.13c0.98,0.3,1.71,0.87,2.2,1.69c0.49,0.83,0.73,1.83,0.73,3
				c0,0.84,0.08,1.55,0.24,2.15c0.16,0.6,0.53,0.97,1.12,1.13v1.09c-0.82,0.34-1.88,0.51-3.2,0.51c-1.26,0-2.2-0.26-2.83-0.79
				c-0.62-0.52-0.93-1.41-0.93-2.65c0-1.17-0.15-2.12-0.44-2.84c-0.29-0.72-0.94-1.08-1.93-1.08h-1.55v7.09h-5.47V1.02h10.27
				C130.28,1.02,131.11,1.21,131.88,1.6z M124.61,8.14h2.83c0.37,0,0.69-0.13,0.95-0.39c0.26-0.26,0.39-0.57,0.39-0.95V6.54
				c0-0.37-0.13-0.69-0.39-0.95c-0.26-0.26-0.57-0.39-0.95-0.39h-2.83V8.14z"/>
			<path fill="#FFFFFF" d="M149.02,1.62c1.16,0.58,2.08,1.45,2.76,2.61c0.68,1.16,1.01,2.59,1.01,4.28h-5.25V7.58
				c0-0.82-0.25-1.47-0.76-1.95c-0.51-0.48-1.14-0.72-1.91-0.72h-0.13c-0.75,0-1.38,0.26-1.89,0.77c-0.52,0.52-0.77,1.15-0.77,1.89
				v5.15c0,0.75,0.26,1.38,0.77,1.89c0.52,0.52,1.15,0.77,1.89,0.77h0.37c0.76,0,1.4-0.24,1.91-0.71c0.51-0.47,0.76-1.12,0.76-1.96
				v-0.88h5.01c0,1.56-0.32,2.93-0.97,4.11c-0.65,1.17-1.54,2.07-2.68,2.69c-1.14,0.62-2.43,0.93-3.87,0.93h-0.75
				c-1.58,0-3.02-0.32-4.31-0.96c-1.29-0.64-2.31-1.56-3.05-2.77c-0.75-1.21-1.12-2.63-1.12-4.27V8.76c0-1.55,0.38-2.93,1.13-4.15
				c0.76-1.22,1.76-2.16,3.03-2.84c1.26-0.68,2.63-1.01,4.11-1.01h0.75C146.53,0.76,147.85,1.05,149.02,1.62z"/>
			<path fill="#FFFFFF" d="M168.66,5.24h-8.22V7.9h7.41v4.08h-7.41v2.96h8.22l0.02,4.37h-13.73V1.02h13.73L168.66,5.24z"/>
		</g>
		<path fill="#FFFFFF" d="M187.76,1.84c0.96,0.52,1.72,1.23,2.28,2.12c0.56,0.89,0.83,1.87,0.83,2.94c0,1.62-0.36,2.86-1.08,3.72
			c-0.72,0.86-1.69,1.47-2.92,1.84v0.14c3.04,0.7,4.56,2.68,4.56,5.95c0,1.16-0.3,2.23-0.89,3.2c-0.59,0.97-1.39,1.75-2.4,2.31
			c-1.01,0.57-2.12,0.85-3.32,0.85h-13.29V1.05h13.08C185.75,1.05,186.79,1.32,187.76,1.84z M178.24,10.2h4
			c0.49,0,0.9-0.17,1.23-0.5c0.34-0.34,0.5-0.75,0.5-1.23V7.87c0-0.49-0.17-0.9-0.5-1.23c-0.34-0.34-0.75-0.5-1.23-0.5h-4V10.2z
			 M178.24,19.39h4.42c0.49,0,0.9-0.17,1.23-0.5c0.34-0.34,0.5-0.75,0.5-1.23v-0.63c0-0.49-0.17-0.9-0.5-1.23
			c-0.34-0.34-0.75-0.5-1.23-0.5h-4.42V19.39z"/>
		<path fill="#FFFFFF" d="M211.06,6.55h-10.05v3.48h9.67v5.32h-9.67v3.86h10.05l0.7,5.71h-17.92V1.05h17.92L211.06,6.55z"/>
		<path fill="#FFFFFF" d="M234.71,24.92h-6.26l-7.17-10.33l-0.1-0.24v10.58h-6.71V1.05h6.12l7.31,10.58l0.07,0.24V1.05h6.75V24.92z"
			/>
	</g>
</g>
</svg>
